<?xml version="1.0" encoding="utf-8"?>
<!-- Generator: Adobe Illustrator 27.1.0, SVG Export Plug-In . SVG Version: 6.00 Build 0)  -->
<svg version="1.1" id="Layer_1" xmlns="http://www.w3.org/2000/svg" xmlns:xlink="http://www.w3.org/1999/xlink" x="0px" y="0px"
	 viewBox="0 0 923.1 200" style="enable-background:new 0 0 923.1 200;" xml:space="preserve">
<style type="text/css">
	.st0{fill:#74C044;}
	.st1{fill:#4D4D4F;}
	.st2{fill:#3A9948;}
	.st3{fill:#73BF45;}
	.st4{fill:#28B24D;}
	.st5{fill:#A5CE39;}
	.st6{fill:#C7DA2E;}
	.st7{fill:url(#SVGID_1_);}
	.st8{fill:#FFFFFF;}
</style>
<g>
	<g>
		<path class="st8" d="M306.39,64.35c0-3.51-1.23-6.21-3.7-8.11c-2.47-1.9-6.91-3.82-13.34-5.75c-6.43-1.94-11.54-4.09-15.34-6.46
			c-7.27-4.57-10.9-10.52-10.9-17.86c0-6.43,2.62-11.72,7.86-15.89c5.24-4.16,12.04-6.25,20.41-6.25c5.55,0,10.5,1.02,14.85,3.07
			c4.35,2.05,7.76,4.96,10.25,8.74c2.48,3.78,3.73,7.97,3.73,12.57h-13.81c0-4.16-1.31-7.42-3.92-9.78
			c-2.61-2.36-6.35-3.53-11.2-3.53c-4.53,0-8.05,0.97-10.55,2.9c-2.5,1.94-3.75,4.64-3.75,8.11c0,2.92,1.35,5.36,4.05,7.31
			c2.7,1.95,7.16,3.85,13.37,5.7c6.21,1.84,11.19,3.94,14.96,6.3c3.76,2.36,6.52,5.06,8.27,8.11c1.75,3.05,2.63,6.62,2.63,10.71
			c0,6.65-2.55,11.94-7.64,15.86c-5.1,3.93-12.01,5.89-20.74,5.89c-5.77,0-11.08-1.07-15.92-3.21c-4.84-2.14-8.6-5.09-11.29-8.85
			c-2.68-3.76-4.03-8.14-4.03-13.15h13.86c0,4.53,1.5,8.04,4.49,10.52c2.99,2.48,7.29,3.73,12.88,3.73c4.82,0,8.45-0.98,10.88-2.93
			C305.18,70.15,306.39,67.57,306.39,64.35z"/>
		<path class="st8" d="M347.81,11.21v14.41h10.46v9.86h-10.46v33.09c0,2.27,0.45,3.9,1.34,4.9c0.89,1,2.49,1.51,4.79,1.51
			c1.53,0,3.09-0.18,4.66-0.55v10.3c-3.03,0.84-5.95,1.26-8.77,1.26c-10.23,0-15.34-5.64-15.34-16.93V35.48h-9.75v-9.86h9.75V11.21
			H347.81z"/>
		<path class="st8" d="M364.3,54.71c0-5.81,1.15-11.04,3.45-15.7c2.3-4.66,5.53-8.24,9.7-10.74c4.16-2.5,8.95-3.75,14.35-3.75
			c8,0,14.49,2.58,19.48,7.73c4.99,5.15,7.68,11.98,8.08,20.49l0.06,3.12c0,5.84-1.12,11.07-3.37,15.67s-5.46,8.16-9.64,10.68
			c-4.18,2.52-9.01,3.78-14.49,3.78c-8.36,0-15.06-2.78-20.08-8.35c-5.02-5.57-7.53-12.99-7.53-22.27V54.71z M377.61,55.86
			c0,6.1,1.26,10.88,3.78,14.33c2.52,3.45,6.03,5.18,10.52,5.18c4.49,0,7.99-1.75,10.49-5.26c2.5-3.51,3.75-8.64,3.75-15.4
			c0-5.99-1.29-10.74-3.86-14.24c-2.58-3.51-6.07-5.26-10.49-5.26c-4.35,0-7.8,1.73-10.35,5.18S377.61,48.99,377.61,55.86z"/>
		<path class="st8" d="M455.03,75.36c3.32,0,6.08-0.97,8.27-2.9c2.19-1.94,3.36-4.33,3.51-7.18h12.55
			c-0.15,3.69-1.3,7.13-3.45,10.33c-2.16,3.2-5.08,5.73-8.77,7.59c-3.69,1.86-7.67,2.79-11.94,2.79c-8.29,0-14.87-2.68-19.72-8.05
			c-4.86-5.37-7.29-12.78-7.29-22.24v-1.37c0-9.02,2.41-16.24,7.23-21.67c4.82-5.42,11.4-8.14,19.72-8.14
			c7.05,0,12.79,2.05,17.23,6.16c4.44,4.11,6.77,9.51,6.99,16.19h-12.55c-0.15-3.4-1.31-6.19-3.48-8.38
			c-2.17-2.19-4.94-3.29-8.3-3.29c-4.31,0-7.63,1.56-9.97,4.68c-2.34,3.12-3.52,7.86-3.56,14.22v2.14c0,6.43,1.16,11.22,3.48,14.38
			C447.3,73.79,450.65,75.36,455.03,75.36z"/>
		<path class="st8" d="M508.67,59.48l-5.92,6.08V84.9h-13.31V0.74h13.31v48.54l4.16-5.21l16.38-18.46h16l-22.02,24.71l24.38,34.57
			h-15.4L508.67,59.48z"/>
		<path class="st8" d="M606.9,16.3h-24.87V84.9h-13.75V16.3h-24.65V5.13h63.28V16.3z"/>
		<path class="st8" d="M643.55,37.78c-1.75-0.29-3.56-0.44-5.42-0.44c-6.1,0-10.21,2.34-12.33,7.01V84.9h-13.31V25.62h12.71
			l0.33,6.63c3.21-5.15,7.67-7.73,13.37-7.73c1.9,0,3.47,0.26,4.71,0.77L643.55,37.78z"/>
		<path class="st8" d="M685.74,84.9c-0.58-1.13-1.1-2.98-1.53-5.53c-4.24,4.42-9.42,6.63-15.56,6.63c-5.95,0-10.81-1.7-14.57-5.1
			c-3.76-3.4-5.64-7.6-5.64-12.6c0-6.32,2.35-11.17,7.04-14.55c4.69-3.38,11.4-5.07,20.13-5.07h8.16v-3.89
			c0-3.07-0.86-5.52-2.58-7.37c-1.72-1.84-4.33-2.77-7.83-2.77c-3.03,0-5.52,0.76-7.45,2.27c-1.94,1.52-2.9,3.44-2.9,5.78h-13.31
			c0-3.25,1.08-6.29,3.23-9.12c2.15-2.83,5.09-5.05,8.79-6.66c3.71-1.61,7.84-2.41,12.41-2.41c6.94,0,12.47,1.74,16.6,5.23
			c4.13,3.49,6.25,8.39,6.36,14.71V71.2c0,5.33,0.75,9.59,2.25,12.77v0.93H685.74z M671.11,75.31c2.63,0,5.1-0.64,7.42-1.92
			c2.32-1.28,4.06-2.99,5.23-5.15V57.07h-7.18c-4.93,0-8.64,0.86-11.12,2.57c-2.48,1.72-3.73,4.15-3.73,7.29
			c0,2.56,0.85,4.59,2.55,6.11S668.26,75.31,671.11,75.31z"/>
		<path class="st8" d="M708.53,54.82c0-9.13,2.12-16.46,6.36-22c4.24-5.53,9.92-8.3,17.04-8.3c6.28,0,11.36,2.19,15.23,6.57V0.74
			h13.31V84.9h-12.05l-0.66-6.14c-3.98,4.82-9.3,7.23-15.94,7.23c-6.94,0-12.56-2.79-16.85-8.38
			C710.68,72.02,708.53,64.43,708.53,54.82z M721.85,55.97c0,6.03,1.16,10.73,3.48,14.11c2.32,3.38,5.62,5.07,9.89,5.07
			c5.44,0,9.42-2.43,11.94-7.29V42.55c-2.45-4.75-6.39-7.12-11.83-7.12c-4.31,0-7.63,1.71-9.97,5.12
			C723.01,43.96,721.85,49.1,721.85,55.97z"/>
		<path class="st8" d="M800.47,85.99c-8.44,0-15.28-2.66-20.52-7.97s-7.86-12.39-7.86-21.23v-1.64c0-5.92,1.14-11.2,3.42-15.86
			c2.28-4.66,5.49-8.28,9.62-10.88c4.13-2.59,8.73-3.89,13.81-3.89c8.07,0,14.31,2.58,18.71,7.73c4.4,5.15,6.6,12.44,6.6,21.86v5.37
			h-38.73c0.4,4.9,2.04,8.77,4.9,11.61c2.87,2.85,6.47,4.27,10.82,4.27c6.1,0,11.07-2.47,14.9-7.4l7.18,6.85
			c-2.37,3.54-5.54,6.29-9.51,8.25C809.84,85.02,805.4,85.99,800.47,85.99z M798.88,35.21c-3.65,0-6.6,1.28-8.85,3.83
			c-2.25,2.56-3.68,6.12-4.3,10.68h25.37v-0.99c-0.29-4.46-1.48-7.83-3.56-10.11C805.45,36.35,802.57,35.21,798.88,35.21z"/>
		<path class="st8" d="M865.61,37.78c-1.75-0.29-3.56-0.44-5.42-0.44c-6.1,0-10.21,2.34-12.33,7.01V84.9h-13.31V25.62h12.71
			l0.33,6.63c3.21-5.15,7.67-7.73,13.37-7.73c1.9,0,3.47,0.26,4.71,0.77L865.61,37.78z"/>
		<path class="st8" d="M907.25,68.79c0-2.37-0.98-4.18-2.93-5.42c-1.95-1.24-5.2-2.34-9.72-3.29c-4.53-0.95-8.31-2.15-11.34-3.62
			c-6.65-3.21-9.97-7.87-9.97-13.97c0-5.11,2.15-9.39,6.46-12.82c4.31-3.43,9.79-5.15,16.44-5.15c7.09,0,12.81,1.75,17.18,5.26
			c4.36,3.51,6.55,8.05,6.55,13.64h-13.31c0-2.56-0.95-4.68-2.85-6.38c-1.9-1.7-4.42-2.55-7.56-2.55c-2.92,0-5.31,0.68-7.15,2.03
			c-1.84,1.35-2.77,3.16-2.77,5.42c0,2.05,0.86,3.63,2.58,4.77c1.72,1.13,5.19,2.27,10.41,3.42c5.22,1.15,9.32,2.52,12.3,4.11
			c2.98,1.59,5.19,3.5,6.63,5.73c1.44,2.23,2.16,4.93,2.16,8.11c0,5.33-2.21,9.65-6.63,12.96c-4.42,3.31-10.21,4.96-17.37,4.96
			c-4.86,0-9.19-0.88-12.98-2.63c-3.8-1.75-6.76-4.16-8.88-7.23c-2.12-3.07-3.18-6.37-3.18-9.92h12.93
			c0.18,3.14,1.37,5.56,3.56,7.26c2.19,1.7,5.1,2.55,8.71,2.55c3.51,0,6.17-0.67,8-2C906.33,72.69,907.25,70.95,907.25,68.79z"/>
	</g>
	<g>
		<path class="st8" d="M400.85,115.12h-9.32v25.87h-3.8v-25.87h-9.3v-3.13h22.42V115.12z"/>
		<path class="st8" d="M404.6,113.73c0-0.6,0.18-1.1,0.55-1.51c0.36-0.41,0.91-0.62,1.62-0.62s1.26,0.21,1.63,0.62
			c0.37,0.41,0.56,0.92,0.56,1.51c0,0.6-0.19,1.1-0.56,1.49c-0.37,0.4-0.92,0.6-1.63,0.6s-1.26-0.2-1.62-0.6
			C404.78,114.82,404.6,114.32,404.6,113.73z M408.58,140.99h-3.68v-21.55h3.68V140.99z"/>
		<path class="st8" d="M417.94,119.44l0.1,2.39c1.58-1.86,3.71-2.79,6.39-2.79c3.01,0,5.06,1.16,6.15,3.46
			c0.72-1.04,1.65-1.87,2.8-2.51c1.15-0.64,2.51-0.96,4.07-0.96c4.73,0,7.13,2.5,7.21,7.51v14.44h-3.68v-14.22
			c0-1.54-0.35-2.69-1.06-3.45c-0.7-0.76-1.89-1.15-3.54-1.15c-1.37,0-2.5,0.41-3.4,1.22c-0.9,0.82-1.43,1.92-1.57,3.3v14.3h-3.7
			v-14.12c0-3.13-1.53-4.7-4.6-4.7c-2.42,0-4.07,1.03-4.96,3.09v15.73h-3.68v-21.55H417.94z"/>
		<path class="st8" d="M459.16,141.39c-2.92,0-5.3-0.96-7.13-2.88c-1.83-1.92-2.75-4.48-2.75-7.7v-0.68c0-2.14,0.41-4.05,1.22-5.72
			s1.96-2.99,3.42-3.94c1.47-0.95,3.06-1.42,4.77-1.42c2.8,0,4.98,0.92,6.53,2.77s2.33,4.49,2.33,7.93v1.53h-14.6
			c0.05,2.12,0.67,3.84,1.86,5.15s2.7,1.96,4.53,1.96c1.3,0,2.4-0.27,3.31-0.8c0.9-0.53,1.69-1.23,2.37-2.11l2.25,1.75
			C465.48,140,462.77,141.39,459.16,141.39z M458.7,122.07c-1.49,0-2.73,0.54-3.74,1.62s-1.63,2.6-1.87,4.55h10.79v-0.28
			c-0.11-1.87-0.61-3.32-1.51-4.35C461.46,122.58,460.24,122.07,458.7,122.07z"/>
		<path class="st8" d="M501.73,115.12h-9.32v25.87h-3.8v-25.87h-9.3v-3.13h22.42V115.12z"/>
		<path class="st8" d="M502.51,130.02c0-2.11,0.41-4.01,1.24-5.7c0.83-1.69,1.98-2.99,3.46-3.9c1.48-0.92,3.17-1.37,5.07-1.37
			c2.93,0,5.31,1.02,7.12,3.05c1.81,2.03,2.72,4.73,2.72,8.1v0.26c0,2.1-0.4,3.98-1.2,5.65c-0.8,1.67-1.95,2.96-3.44,3.89
			s-3.21,1.39-5.15,1.39c-2.92,0-5.29-1.02-7.1-3.05s-2.72-4.72-2.72-8.06V130.02z M506.21,130.45c0,2.39,0.55,4.31,1.66,5.75
			c1.11,1.45,2.59,2.17,4.45,2.17c1.87,0,3.36-0.73,4.46-2.2c1.1-1.47,1.65-3.52,1.65-6.16c0-2.36-0.56-4.28-1.68-5.75
			c-1.12-1.47-2.61-2.2-4.47-2.2c-1.82,0-3.29,0.72-4.4,2.17C506.77,125.69,506.21,127.76,506.21,130.45z"/>
		<path class="st8" d="M558.82,137.18c-0.98,1.41-2.35,2.46-4.11,3.16c-1.76,0.7-3.81,1.05-6.14,1.05c-2.36,0-4.46-0.55-6.29-1.66
			c-1.83-1.11-3.25-2.68-4.25-4.73c-1-2.04-1.52-4.41-1.54-7.11v-2.53c0-4.37,1.02-7.75,3.06-10.16c2.04-2.4,4.9-3.6,8.59-3.6
			c3.03,0,5.46,0.77,7.31,2.32c1.84,1.55,2.97,3.74,3.39,6.58H555c-0.72-3.85-3-5.77-6.85-5.77c-2.56,0-4.5,0.9-5.82,2.7
			c-1.32,1.8-1.99,4.41-2,7.82v2.37c0,3.26,0.74,5.84,2.23,7.76c1.49,1.92,3.5,2.88,6.03,2.88c1.43,0,2.69-0.16,3.76-0.48
			s1.96-0.85,2.67-1.61v-6.5h-6.71v-3.13h10.51V137.18z"/>
		<path class="st8" d="M577.92,140.99c-0.21-0.42-0.39-1.18-0.52-2.27c-1.71,1.78-3.76,2.67-6.13,2.67c-2.12,0-3.87-0.6-5.23-1.8
			c-1.36-1.2-2.04-2.72-2.04-4.57c0-2.24,0.85-3.99,2.56-5.23c1.71-1.24,4.11-1.86,7.2-1.86h3.58v-1.69c0-1.29-0.38-2.31-1.15-3.08
			s-1.9-1.15-3.4-1.15c-1.31,0-2.42,0.33-3.31,1c-0.89,0.66-1.33,1.47-1.33,2.41h-3.7c0-1.08,0.38-2.11,1.15-3.12
			c0.76-1,1.8-1.8,3.11-2.38s2.74-0.88,4.31-0.88c2.48,0,4.43,0.62,5.83,1.86c1.41,1.24,2.14,2.95,2.19,5.13v9.92
			c0,1.98,0.25,3.55,0.76,4.72v0.32H577.92z M571.8,138.18c1.16,0,2.25-0.3,3.29-0.9c1.04-0.6,1.79-1.37,2.25-2.33v-4.42h-2.89
			c-4.51,0-6.77,1.32-6.77,3.96c0,1.16,0.38,2.06,1.15,2.71C569.61,137.85,570.6,138.18,571.8,138.18z"/>
		<path class="st8" d="M586.82,113.73c0-0.6,0.18-1.1,0.55-1.51c0.36-0.41,0.91-0.62,1.62-0.62s1.26,0.21,1.63,0.62
			c0.37,0.41,0.56,0.92,0.56,1.51c0,0.6-0.19,1.1-0.56,1.49c-0.37,0.4-0.92,0.6-1.63,0.6s-1.26-0.2-1.62-0.6
			C587,114.82,586.82,114.32,586.82,113.73z M590.8,140.99h-3.68v-21.55h3.68V140.99z"/>
		<path class="st8" d="M600.18,119.44l0.12,2.71c1.65-2.07,3.8-3.11,6.45-3.11c4.55,0,6.85,2.57,6.89,7.71v14.24h-3.68v-14.26
			c-0.01-1.55-0.37-2.7-1.07-3.44c-0.7-0.74-1.78-1.12-3.26-1.12c-1.19,0-2.24,0.32-3.15,0.96c-0.9,0.64-1.61,1.47-2.11,2.51v15.35
			h-3.68v-21.55H600.18z"/>
		<path class="st8" d="M649.1,115.12h-9.32v25.87h-3.8v-25.87h-9.3v-3.13h22.42V115.12z"/>
		<path class="st8" d="M656.51,122.05c1.63-2,3.76-3.01,6.37-3.01c4.55,0,6.85,2.57,6.89,7.71v14.24h-3.68v-14.26
			c-0.01-1.55-0.37-2.7-1.07-3.44c-0.7-0.74-1.78-1.12-3.26-1.12c-1.19,0-2.24,0.32-3.15,0.96c-0.9,0.64-1.61,1.47-2.11,2.51v15.35
			h-3.68V110.4h3.68V122.05z"/>
		<path class="st8" d="M684.23,141.39c-2.92,0-5.3-0.96-7.13-2.88c-1.83-1.92-2.75-4.48-2.75-7.7v-0.68c0-2.14,0.41-4.05,1.22-5.72
			s1.96-2.99,3.42-3.94c1.47-0.95,3.06-1.42,4.77-1.42c2.8,0,4.98,0.92,6.53,2.77s2.33,4.49,2.33,7.93v1.53h-14.6
			c0.05,2.12,0.67,3.84,1.86,5.15s2.7,1.96,4.53,1.96c1.3,0,2.4-0.27,3.31-0.8c0.9-0.53,1.69-1.23,2.37-2.11l2.25,1.75
			C690.55,140,687.84,141.39,684.23,141.39z M683.77,122.07c-1.49,0-2.73,0.54-3.74,1.62s-1.63,2.6-1.87,4.55h10.79v-0.28
			c-0.11-1.87-0.61-3.32-1.51-4.35C686.53,122.58,685.31,122.07,683.77,122.07z"/>
		<path class="st8" d="M711.39,129.64v11.35h-3.82v-28.99h10.69c3.17,0,5.66,0.81,7.46,2.43s2.7,3.76,2.7,6.43
			c0,2.81-0.88,4.98-2.64,6.5c-1.76,1.52-4.28,2.28-7.56,2.28H711.39z M711.39,126.51h6.87c2.04,0,3.61-0.48,4.7-1.45
			c1.09-0.96,1.63-2.36,1.63-4.18c0-1.73-0.54-3.11-1.63-4.15c-1.09-1.04-2.58-1.58-4.48-1.62h-7.09V126.51z"/>
		<path class="st8" d="M743.13,122.75c-0.56-0.09-1.16-0.14-1.81-0.14c-2.42,0-4.06,1.03-4.92,3.09v15.29h-3.68v-21.55h3.58
			l0.06,2.49c1.21-1.92,2.92-2.89,5.14-2.89c0.72,0,1.26,0.09,1.63,0.28V122.75z"/>
		<path class="st8" d="M745.14,130.02c0-2.11,0.41-4.01,1.24-5.7c0.83-1.69,1.98-2.99,3.46-3.9c1.48-0.92,3.17-1.37,5.07-1.37
			c2.93,0,5.31,1.02,7.12,3.05c1.81,2.03,2.72,4.73,2.72,8.1v0.26c0,2.1-0.4,3.98-1.2,5.65c-0.8,1.67-1.95,2.96-3.44,3.89
			s-3.21,1.39-5.15,1.39c-2.92,0-5.29-1.02-7.1-3.05s-2.72-4.72-2.72-8.06V130.02z M748.85,130.45c0,2.39,0.55,4.31,1.66,5.75
			c1.11,1.45,2.59,2.17,4.45,2.17c1.87,0,3.36-0.73,4.46-2.2c1.1-1.47,1.65-3.52,1.65-6.16c0-2.36-0.56-4.28-1.68-5.75
			c-1.12-1.47-2.61-2.2-4.47-2.2c-1.82,0-3.29,0.72-4.4,2.17C749.4,125.69,748.85,127.76,748.85,130.45z"/>
		<path class="st8" d="M771.19,140.99v-18.7h-3.4v-2.85h3.4v-2.21c0-2.31,0.62-4.1,1.85-5.36c1.23-1.26,2.98-1.89,5.24-1.89
			c0.85,0,1.69,0.11,2.53,0.34l-0.2,2.97c-0.62-0.12-1.29-0.18-1.99-0.18c-1.19,0-2.12,0.35-2.77,1.05c-0.65,0.7-0.98,1.7-0.98,3.01
			v2.28h4.6v2.85h-4.6v18.7H771.19z"/>
		<path class="st8" d="M783.55,113.73c0-0.6,0.18-1.1,0.55-1.51c0.36-0.41,0.91-0.62,1.62-0.62s1.26,0.21,1.63,0.62
			c0.37,0.41,0.56,0.92,0.56,1.51c0,0.6-0.19,1.1-0.56,1.49c-0.37,0.4-0.92,0.6-1.63,0.6s-1.26-0.2-1.62-0.6
			C783.74,114.82,783.55,114.32,783.55,113.73z M787.54,140.99h-3.68v-21.55h3.68V140.99z"/>
		<path class="st8" d="M798.43,114.22v5.22h4.02v2.85h-4.02v13.38c0,0.86,0.18,1.51,0.54,1.94c0.36,0.43,0.97,0.65,1.83,0.65
			c0.42,0,1.01-0.08,1.75-0.24v2.97c-0.97,0.26-1.91,0.4-2.83,0.4c-1.65,0-2.89-0.5-3.72-1.49s-1.25-2.41-1.25-4.24v-13.36h-3.92
			v-2.85h3.92v-5.22H798.43z"/>
	</g>
</g>
<g>
	<path class="st8" d="M200.55,88.45c-5.85,0-10.73,0-14.65,0V55.43h-5.59v33.02c-4.27,0-7.44,0-10.26,0v0h-2.83v69.72
		c14.44-11.38,25.23-27.56,30.35-45.74C199.65,106.04,200.55,94.97,200.55,88.45z"/>
	<path class="st8" d="M115.23,55.43V22.28h-5.59v33.14h-13.6v40.74l-0.21,79.39c6.85,1.54,16.41,1.63,16.41,1.63
		c5.02,0,11.31-0.54,16.37-1.47l0.22-79.54V55.43H115.23z"/>
	<path class="st8" d="M151.02,110.37V77.02h-5.59v33.35h-13.6v44.28v20.4c10.99-2.49,21.93-7.03,32.79-14.97v-5.43v-44.28H151.02z"
		/>
	<path class="st8" d="M79.39,77.02V44.44h-5.6l-0.07,32.58H60.2v51.56v31.25c9.04,6.84,21.26,12.58,32.76,15.12l0.02-46.37V77.02
		H79.39z"/>
	<path class="st8" d="M43.63,33.45V0.51h-5.59v32.93h-13.6v36.24v14.26v9.01c1.31,25.93,13.82,49.22,32.79,64.53v-87.8V33.45H43.63z
		"/>
	<g>
		<path class="st8" d="M112.61,180.69c-50.58,0-91.65-40.71-92.26-91.15h0v-0.18c-0.01-0.32-0.03-0.64-0.03-0.96
			c0-0.32,0.02-0.63,0.03-0.96v-54C9.21,50.63,2.71,66.39,2.71,88.4c0,60.69,49.2,109.9,109.9,109.9c60.7,0,109.9-49.21,109.9-109.9
			h-17.6C204.91,139.37,163.58,180.69,112.61,180.69z"/>
	</g>
</g>
</svg>
